{
  "accessors": [
    {
      "bufferView": 2,
      "componentType": 5126,
      "count": 14854,
      "max": [
        0.5974940061569214,
        0.9920870065689087,
        0.5451880097389221
      ],
      "min": [
        -0.6197540163993835,
        -0.9937989711761475,
        -0.5381960272789001
      ],
      "type": "VEC3"
    },
    {
      "bufferView": 2,
      "byteOffset": 178248,
      "componentType": 5126,
      "count": 14854,
      "max": [
        0.9999663829803467,
        0.9999813437461853,
        0.999986469745636
      ],
      "min": [
        -0.9999935626983643,
        -0.9993345737457275,
        -0.9998407363891602
      ],
      "type": "VEC3"
    },
    {
      "bufferView": 1,
      "componentType": 5126,
      "count": 14854,
      "max": [
        0.9999740123748779,
        0.9999979734420776
      ],
      "min": [
        6.000000212225132e-06,
        5.2999999752501026e-05
      ],
      "type": "VEC2"
    },
    {
      "bufferView": 0,
      "componentType": 5125,
      "count": 61185,
      "type": "SCALAR"
    }
  ],
  "asset": {
    "extras": {
      "author": "Mesh-Magnet (https://sketchfab.com/Mesh-Magnet)",
      "license": "CC-BY-4.0 (http://creativecommons.org/licenses/by/4.0/)",
      "source": "https://sketchfab.com/3d-models/human-heart-3d-model-anatomy-medical-project-5da08bb137014f0392c69f9997f777cd",
      "title": "Human Heart 3D Model | Anatomy | Medical Project"
    },
    "generator": "Sketchfab-16.74.0",
    "version": "2.0"
  },
  "bufferViews": [
    {
      "buffer": 0,
      "byteLength": 244740,
      "name": "floatBufferViews",
      "target": 34963
    },
    {
      "buffer": 0,
      "byteLength": 118832,
      "byteOffset": 244740,
      "byteStride": 8,
      "name": "floatBufferViews",
      "target": 34962
    },
    {
      "buffer": 0,
      "byteLength": 356496,
      "byteOffset": 363572,
      "byteStride": 12,
      "name": "floatBufferViews",
      "target": 34962
    }
  ],
  "buffers": [
    {
      "byteLength": 720068,
      "uri": "scene.bin"
    }
  ],
  "images": [
    {
      "uri": "textures/Material.001_baseColor.png"
    }
  ],
  "materials": [
    {
      "doubleSided": true,
      "name": "Material.001",
      "pbrMetallicRoughness": {
        "baseColorTexture": {
          "index": 0
        },
        "metallicFactor": 0.0,
        "roughnessFactor": 0.9191444233340864
      }
    }
  ],
  "meshes": [
    {
      "name": "Heart_Material.001_0",
      "primitives": [
        {
          "attributes": {
            "NORMAL": 1,
            "POSITION": 0,
            "TEXCOORD_0": 2
          },
          "indices": 3,
          "material": 0,
          "mode": 4
        }
      ]
    }
  ],
  "nodes": [
    {
      "children": [
        1
      ],
      "matrix": [
        1.0,
        0.0,
        0.0,
        0.0,
        0.0,
        2.220446049250313e-16,
        -1.0,
        0.0,
        0.0,
        1.0,
        2.220446049250313e-16,
        0.0,
        0.0,
        0.0,
        0.0,
        1.0
      ],
      "name": "Sketchfab_model"
    },
    {
      "children": [
        2
      ],
      "matrix": [
        0.009999999776482582,
        0.0,
        0.0,
        0.0,
        0.0,
        0.0,
        0.009999999776482582,
        0.0,
        0.0,
        -0.009999999776482582,
        0.0,
        0.0,
        0.0,
        0.0,
        0.0,
        1.0
      ],
      "name": "human heart .fbx"
    },
    {
      "children": [
        3,
        5,
        8,
        11,
        14,
        17,
        20,
        23
      ],
      "name": "RootNode"
    },
    {
      "children": [
        4
      ],
      "matrix": [
        474.8989562988281,
        0.0,
        0.0,
        0.0,
        0.0,
        474.89895629882676,
        -3.5853874513046136e-05,
        0.0,
        0.0,
        3.5853874513046136e-05,
        474.89895629882676,
        0.0,
        817.3014526367188,
        588.1810302734375,
        1.0306950571248308e-05,
        1.0
      ],
      "name": "Heart"
    },
    {
      "mesh": 0,
      "name": "Heart_Material.001_0"
    },
    {
      "children": [
        6
      ],
      "matrix": [
        100.0,
        0.0,
        0.0,
        0.0,
        0.0,
        99.99999999999972,
        -7.5497901264043296e-06,
        0.0,
        0.0,
        7.5497901264043296e-06,
        99.99999999999972,
        0.0,
        833.3167724609375,
        1250.2572021484375,
        0.0,
        1.0
      ],
      "name": "Area"
    },
    {
      "children": [
        7
      ],
      "matrix": [
        1.0,
        0.0,
        0.0,
        0.0,
        0.0,
        2.220446049250313e-16,
        1.0,
        0.0,
        0.0,
        -1.0,
        2.220446049250313e-16,
        0.0,
        0.0,
        0.0,
        0.0,
        1.0
      ],
      "name": "Object_6"
    },
    {
      "name": "Object_7"
    },
    {
      "children": [
        9
      ],
      "matrix": [
        100.0,
        2.2204455198547207e-14,
        2.2219468857537293e-14,
        0.0,
        -2.220445445035005e-14,
        -0.067596033166617,
        99.99997715387889,
        0.0,
        2.221946960522887e-14,
        -99.99997715387889,
        -0.067596033166617,
        0.0,
        833.3167724609375,
        574.95068359375,
        865.9600219726563,
        1.0
      ],
      "name": "Area.001"
    },
    {
      "children": [
        10
      ],
      "matrix": [
        1.0,
        0.0,
        0.0,
        0.0,
        0.0,
        2.220446049250313e-16,
        1.0,
        0.0,
        0.0,
        -1.0,
        2.220446049250313e-16,
        0.0,
        0.0,
        0.0,
        0.0,
        1.0
      ],
      "name": "Object_9"
    },
    {
      "name": "Object_10"
    },
    {
      "children": [
        12
      ],
      "matrix": [
        100.0,
        -2.2287191788648234e-14,
        -6.658694875559914e-14,
        0.0,
        -6.661336491438809e-14,
        -0.11873679563159101,
        -99.99992950784198,
        0.0,
        2.220811286866454e-14,
        99.99992950784198,
        -0.11873679563159101,
        0.0,
        833.3167724609375,
        574.95068359375,
        -501.67889404296875,
        1.0
      ],
      "name": "Area.002"
    },
    {
      "children": [
        13
      ],
      "matrix": [
        1.0,
        0.0,
        0.0,
        0.0,
        0.0,
        2.220446049250313e-16,
        1.0,
        0.0,
        0.0,
        -1.0,
        2.220446049250313e-16,
        0.0,
        0.0,
        0.0,
        0.0,
        1.0
      ],
      "name": "Object_12"
    },
    {
      "name": "Object_13"
    },
    {
      "children": [
        15
      ],
      "matrix": [
        -0.079278540385741,
        -99.99996857455933,
        -1.343587996416314e-05,
        0.0,
        99.99996857455801,
        -0.07927854038289883,
        -2.0998174932173813e-05,
        0.0,
        2.0987516563881623e-05,
        -1.3452522788472351e-05,
        99.99999999999689,
        0.0,
        1369.660888671875,
        470.9539489746094,
        0.0,
        1.0
      ],
      "name": "Area.003"
    },
    {
      "children": [
        16
      ],
      "matrix": [
        1.0,
        0.0,
        0.0,
        0.0,
        0.0,
        2.220446049250313e-16,
        1.0,
        0.0,
        0.0,
        -1.0,
        2.220446049250313e-16,
        0.0,
        0.0,
        0.0,
        0.0,
        1.0
      ],
      "name": "Object_15"
    },
    {
      "name": "Object_16"
    },
    {
      "children": [
        18
      ],
      "matrix": [
        0.21763585698681975,
        99.99976317288744,
        1.3438059909276457e-05,
        0.0,
        -99.99976317288613,
        0.21763585698962862,
        -2.0959306823442257e-05,
        0.0,
        -2.0988503222967433e-05,
        -1.3392413117283319e-05,
        99.9999999999969,
        0.0,
        287.8044128417969,
        470.9539489746094,
        0.0,
        1.0
      ],
      "name": "Area.004"
    },
    {
      "children": [
        19
      ],
      "matrix": [
        1.0,
        0.0,
        0.0,
        0.0,
        0.0,
        2.220446049250313e-16,
        1.0,
        0.0,
        0.0,
        -1.0,
        2.220446049250313e-16,
        0.0,
        0.0,
        0.0,
        0.0,
        1.0
      ],
      "name": "Object_18"
    },
    {
      "name": "Object_19"
    },
    {
      "children": [
        21
      ],
      "matrix": [
        -99.9952904744589,
        -0.9705065319660509,
        -1.3039449520135807e-07,
        0.0,
        0.9705065319660384,
        -99.99529047445297,
        -3.442278000420562e-05,
        0.0,
        2.036869741858245e-07,
        -3.442242434168261e-05,
        99.99999999999407,
        0.0,
        808.1040649414063,
        -143.32037353515625,
        0.0,
        1.0
      ],
      "name": "Area.005"
    },
    {
      "children": [
        22
      ],
      "matrix": [
        1.0,
        0.0,
        0.0,
        0.0,
        0.0,
        2.220446049250313e-16,
        1.0,
        0.0,
        0.0,
        -1.0,
        2.220446049250313e-16,
        0.0,
        0.0,
        0.0,
        0.0,
        1.0
      ],
      "name": "Object_21"
    },
    {
      "name": "Object_22"
    },
    {
      "children": [
        24
      ],
      "matrix": [
        -18.738273530530495,
        1.6292068447539638e-05,
        -98.22870573805666,
        0.0,
        3.052850832694328e-06,
        99.99999999999866,
        1.600348573252115e-05,
        0.0,
        98.22870573805797,
        1.0699101070519731e-12,
        -18.73827353053074,
        0.0,
        1288.097900390625,
        591.9571533203125,
        2530.5595703125,
        1.0
      ],
      "name": "Camera"
    },
    {
      "name": "Object_24"
    }
  ],
  "samplers": [
    {
      "magFilter": 9729,
      "minFilter": 9987,
      "wrapS": 10497,
      "wrapT": 10497
    }
  ],
  "scene": 0,
  "scenes": [
    {
      "name": "Sketchfab_Scene",
      "nodes": [
        0
      ]
    }
  ],
  "textures": [
    {
      "sampler": 0,
      "source": 0
    }
  ]
}
